<svg preserveAspectRatio="none" width="100%" height="100%" overflow="visible" style="display: block;" viewBox="0 0 12 13" fill="none" xmlns="http://www.w3.org/2000/svg">
<path id="Vector" d="M7.52632 3.05454C7.15 2.61818 6.50489 2.34545 5.6985 2.34545C4.83835 2.34545 4.08572 2.72727 3.65564 3.27273C3.22557 3.81818 3.06429 4.36364 3.01053 5.18182H8.22519C8.22519 4.25455 8.01015 3.54545 7.52632 3.05454ZM11.1282 7.30909H3.01053C3.01053 8.23636 3.33309 9.16364 3.87068 9.70909C4.30076 10.0909 4.89211 10.4727 5.64474 10.4727C6.50489 10.4727 6.98872 10.3091 7.4188 9.87273C7.6876 9.6 7.90264 9.27273 8.01015 8.83636H10.8056C10.7519 9.54546 10.2681 10.5273 9.78422 11.1273C8.76279 12.3818 7.25752 12.8727 5.6985 12.8727C4.03196 12.8727 2.84925 12.2727 1.88158 11.3455C0.698872 10.1455 0 8.45455 0 6.43636C0 4.47273 0.59136 2.72727 1.72031 1.52727C2.63422 0.6 3.92444 0 5.59098 0C7.36504 0 9.03158 0.70909 9.99925 2.29091C10.8594 3.65454 11.0744 5.01818 11.0744 6.54545C11.182 6.49091 11.1282 7.09091 11.1282 7.30909Z" fill="var(--fill-0, #3DAE2B)"/>
</svg>
