<svg preserveAspectRatio="none" width="100%" height="100%" overflow="visible" style="display: block;" viewBox="0 0 13 9" fill="none" xmlns="http://www.w3.org/2000/svg">
<path id="Vector" d="M10.4391 8.88636V3.47727C10.4391 2.39545 10.1654 1.77727 9.07068 1.77727C7.85865 1.77727 7.35038 3.01364 7.35038 4.13409V8.88636H5.2391V3.47727C5.2391 2.39545 4.96541 1.77727 3.87068 1.77727C2.65865 1.77727 2.11128 3.01364 2.11128 4.13409V8.88636H0V0.193182H1.7594L1.91579 1.35227C2.38496 0.540909 3.24511 0 4.41804 0C5.66917 0 6.49023 0.540909 6.9203 1.42954C7.42857 0.540909 8.40602 0 9.57895 0C11.4556 0 12.4331 1.23636 12.4331 3.05227V8.925L10.4391 8.88636Z" fill="var(--fill-0, #1F3045)"/>
</svg>
