<svg preserveAspectRatio="none" width="100%" height="100%" overflow="visible" style="display: block;" viewBox="0 0 9 10" fill="none" xmlns="http://www.w3.org/2000/svg">
<path id="Vector" d="M5.43458 2.35682C5.1609 2.04773 4.69173 1.81591 4.10526 1.81591C3.5188 1.81591 3.04962 2.08636 2.77594 2.35682C2.26767 2.89773 2.15038 3.74773 2.15038 4.55909C2.15038 5.37045 2.26767 6.18182 2.77594 6.76136C3.04962 7.07045 3.5188 7.30227 4.10526 7.30227C4.69173 7.30227 5.1609 7.07045 5.43458 6.76136C5.94286 6.22045 6.06015 5.40909 6.06015 4.55909C6.06015 3.70909 5.94286 2.89773 5.43458 2.35682ZM7.19398 7.76591C6.56842 8.5 5.43459 9.11818 4.10526 9.11818C2.77594 9.11818 1.6421 8.5 1.01654 7.76591C0.351879 6.95454 0 6.02727 0 4.55909C0 3.09091 0.351879 2.16364 1.01654 1.35227C1.6421 0.618182 2.77594 0 4.10526 0C5.43459 0 6.56842 0.618182 7.19398 1.35227C7.85864 2.16364 8.21052 3.09091 8.21052 4.55909C8.21052 5.98864 7.85864 6.91591 7.19398 7.76591Z" fill="var(--fill-0, #1F3045)"/>
</svg>
