<svg preserveAspectRatio="none" width="100%" height="100%" overflow="visible" style="display: block;" viewBox="0 0 67 69" fill="none" xmlns="http://www.w3.org/2000/svg">
<path id="Vector" d="M5.8933 58.3377V53.3184H10.6079C13.6725 53.3184 16.3598 54.881 16.3598 58.2903C16.3598 61.4156 14.0968 63.215 11.1737 63.215C8.25062 63.215 6.12903 61.5103 5.8933 58.3377ZM5.8933 39.3969H11.1737C13.7668 39.3969 15.6526 41.3383 15.6526 43.7059C15.6526 46.7838 13.8139 48.1097 10.6079 48.1097H5.8933V39.3969ZM56.0099 0H0V35.2299V58.3377C0.188586 64.4935 5.09181 68.4237 11.1266 68.4237C17.1613 68.4237 22.3003 64.967 22.3003 58.385C22.3003 54.9757 20.3201 51.6137 16.9256 50.6667C19.8958 49.6249 21.6402 46.5944 21.6402 43.6112C21.6402 37.929 17.1141 34.2355 11.1737 34.2355H5.65757V5.68224H56.0099C58.603 5.68224 60.6774 7.76573 60.6774 10.3701V60.9421H48.4665V66.6717H66.3821V10.3701C66.3821 4.6405 61.7618 0 56.0099 0Z" fill="var(--fill-0, #1F3045)"/>
</svg>
