<svg preserveAspectRatio="none" width="100%" height="100%" overflow="visible" style="display: block;" viewBox="0 0 12 13" fill="none" xmlns="http://www.w3.org/2000/svg">
<path id="Vector" d="M7.47255 3.05454C7.09624 2.61818 6.45113 2.34545 5.64474 2.34545C4.78459 2.34545 4.03195 2.72727 3.60188 3.27273C3.1718 3.81818 3.01053 4.36364 2.95677 5.18182H8.17143C8.17143 4.25455 7.90263 3.54545 7.47255 3.05454ZM11.0744 7.30909H3.01052C2.95676 8.23636 3.33308 9.16364 3.87067 9.70909C4.30075 10.0909 4.89211 10.4727 5.64474 10.4727C6.50489 10.4727 6.98871 10.3091 7.41879 9.87273C7.68759 9.6 7.90263 9.27273 8.01015 8.83636H10.8056C10.7519 9.54546 10.268 10.5273 9.78421 11.1273C8.76278 12.3818 7.25751 12.8727 5.69849 12.8727C4.03195 12.8727 2.84925 12.2727 1.88158 11.3455C0.645113 10.1455 0 8.45455 0 6.43636C0 4.47273 0.591352 2.72727 1.7203 1.52727C2.63421 0.6 3.92443 0 5.59097 0C7.36503 0 9.03157 0.70909 9.99924 2.29091C10.8594 3.65454 11.0744 5.01818 11.0207 6.54545C11.1282 6.49091 11.0744 7.09091 11.0744 7.30909Z" fill="var(--fill-0, #3DAE2B)"/>
</svg>
