<svg preserveAspectRatio="none" width="100%" height="100%" overflow="visible" style="display: block;" viewBox="0 0 9 10" fill="none" xmlns="http://www.w3.org/2000/svg">
<path id="Vector" d="M5.47368 2.16364C5.2 1.85454 4.73083 1.66136 4.14436 1.66136C3.5188 1.66136 2.97143 1.93182 2.65865 2.31818C2.34587 2.70455 2.22857 3.09091 2.18948 3.67045H5.98196C5.98196 3.01364 5.82556 2.51136 5.47368 2.16364ZM8.09324 5.17727H2.18948C2.18948 5.83409 2.42407 6.49091 2.81504 6.87727C3.12782 7.14773 3.5579 7.41818 4.10526 7.41818C4.73083 7.41818 5.08271 7.30227 5.39549 6.99318C5.59098 6.8 5.74737 6.56818 5.82557 6.25909H7.85865C7.81955 6.76136 7.46767 7.45682 7.11579 7.88182C6.37294 8.77045 5.2782 9.11818 4.14436 9.11818C2.93233 9.11818 2.07218 8.69318 1.36842 8.03636C0.508271 7.18636 0 5.98864 0 4.55909C0 3.16818 0.43008 1.93182 1.25113 1.08182C1.91579 0.425 2.85414 0 4.06617 0C5.35639 0 6.56842 0.502272 7.27218 1.62273C7.89775 2.58864 8.05414 3.55455 8.05414 4.63636C8.13233 4.59773 8.09324 5.02273 8.09324 5.17727Z" fill="var(--fill-0, #3DAE2B)"/>
</svg>
