<svg preserveAspectRatio="none" width="100%" height="100%" overflow="visible" style="display: block;" viewBox="0 0 12 20" fill="none" xmlns="http://www.w3.org/2000/svg">
<path id="Vector" d="M5.4297 3C4.08572 3 3.27933 3.98182 3.27933 5.29091C3.27933 6.6 4.08572 7.58182 5.4297 7.58182C6.77369 7.58182 7.58008 6.65455 7.58008 5.29091C7.58008 3.98182 6.77369 3 5.4297 3ZM5.9673 13.5273H3.7094C3.06429 13.7455 2.63422 14.2364 2.63422 15.0545C2.63422 16.6364 4.51579 16.7455 5.6985 16.7455C6.88121 16.7455 8.92406 16.6909 8.92406 15.0545C8.8703 13.5273 7.04248 13.5273 5.9673 13.5273ZM5.75226 19.0909C4.30076 19.0909 2.74174 18.9818 1.45151 18.0545C0.5376 17.4 0 16.5273 0 15.3818C0 14.2909 0.5376 13.3636 1.45151 12.8727C0.698879 12.4364 0.268797 11.5636 0.268797 10.7455C0.268797 9.70909 0.752638 8.89091 1.72031 8.29091C0.967676 7.52727 0.537594 6.54545 0.537594 5.29091C0.537594 2.34545 2.7955 0.763636 5.48346 0.763636C6.50489 0.763636 7.4188 1.03636 8.22519 1.52727C8.70902 0.490909 9.6767 0 10.6981 0C10.8594 0 11.2895 -8.3311e-07 11.5045 0.0545446V2.34545C11.4508 2.34545 11.3432 2.34545 11.2895 2.34545C10.5906 2.34545 9.99925 2.56364 9.83797 3.10909C10.2143 3.76364 10.4831 4.47273 10.4831 5.34545C10.4831 8.12727 8.17143 9.81818 5.53722 9.81818C4.83835 9.81818 4.19324 9.70909 3.60189 9.49091C3.33309 9.65454 3.01053 9.98182 3.01053 10.3636C3.01053 11.0727 3.7094 11.2909 4.35451 11.2909H6.34361C7.58008 11.2909 9.1391 11.2909 10.268 12.1091C11.2895 12.8182 11.7195 13.8545 11.7195 15.0545C11.612 18.2182 8.44023 19.0909 5.75226 19.0909Z" fill="var(--fill-0, #3DAE2B)"/>
</svg>
