<svg preserveAspectRatio="none" width="100%" height="100%" overflow="visible" style="display: block;" viewBox="0 0 9 14" fill="none" xmlns="http://www.w3.org/2000/svg">
<path id="Vector" d="M3.94887 2.125C2.97143 2.125 2.38496 2.82045 2.38496 3.74773C2.38496 4.675 2.97143 5.37045 3.94887 5.37045C4.92632 5.37045 5.51278 4.71364 5.51278 3.74773C5.51278 2.82045 4.92632 2.125 3.94887 2.125ZM4.33985 9.58182H2.69775C2.22857 9.73636 1.91579 10.0841 1.91579 10.6636C1.91579 11.7841 3.28421 11.8614 4.14436 11.8614C5.00451 11.8614 6.49023 11.8227 6.49023 10.6636C6.45113 9.58182 5.12181 9.58182 4.33985 9.58182ZM4.18346 13.5227C3.12782 13.5227 1.99399 13.4455 1.05564 12.7886C0.390982 12.325 0 11.7068 0 10.8955C0 10.1227 0.390982 9.46591 1.05564 9.11818C0.508275 8.80909 0.195489 8.19091 0.195489 7.61136C0.195489 6.87727 0.547373 6.29773 1.25113 5.87273C0.703764 5.33182 0.390977 4.63636 0.390977 3.74773C0.390977 1.66136 2.03309 0.540909 3.98797 0.540909C4.73083 0.540909 5.39549 0.734091 5.98195 1.08182C6.33383 0.347727 7.0376 0 7.78045 0C7.89775 0 8.21053 -5.9012e-07 8.36692 0.0386358V1.66136C8.32782 1.66136 8.24962 1.66136 8.21052 1.66136C7.70225 1.66136 7.27218 1.81591 7.15489 2.20227C7.42857 2.66591 7.62406 3.16818 7.62406 3.78636C7.62406 5.75682 5.94286 6.95455 4.02707 6.95455C3.5188 6.95455 3.04963 6.87727 2.61955 6.72273C2.42406 6.83864 2.18948 7.07045 2.18948 7.34091C2.18948 7.84318 2.69775 7.99773 3.16692 7.99773H4.61353C5.51278 7.99773 6.64662 7.99773 7.46767 8.57727C8.21053 9.07955 8.52331 9.81364 8.52331 10.6636C8.44511 12.9045 6.13835 13.5227 4.18346 13.5227Z" fill="var(--fill-0, #3DAE2B)"/>
</svg>
