<svg preserveAspectRatio="none" width="100%" height="100%" overflow="visible" style="display: block;" viewBox="0 0 9 13" fill="none" xmlns="http://www.w3.org/2000/svg">
<path id="Vector" d="M3.98797 10.3159C2.93233 10.3159 2.15038 9.69773 2.07218 8.57727V6.8H3.20602H3.79248C4.88722 6.8 5.86466 7.34091 5.86466 8.57727C5.86466 9.65909 5.04361 10.3159 3.98797 10.3159ZM3.98797 1.85455C4.92632 1.85455 5.59098 2.55 5.59098 3.4C5.59098 4.48182 4.92632 4.98409 3.75338 4.98409H3.24511H2.03308V1.89318L3.98797 1.85455ZM6.09925 5.83409C7.15489 5.44773 7.81955 4.36591 7.81955 3.32273C7.81955 1.31364 6.17744 0 4.02707 0H0V8.57727C0.0390977 10.7409 1.7985 12.1705 3.98797 12.1705C6.21654 12.1705 8.01504 10.9341 8.01504 8.61591C8.01504 7.37954 7.31128 6.18182 6.09925 5.83409Z" fill="var(--fill-0, #1F3045)"/>
</svg>
