<svg preserveAspectRatio="none" width="100%" height="100%" overflow="visible" style="display: block;" viewBox="0 0 23 26" fill="none" xmlns="http://www.w3.org/2000/svg">
<path id="Vector" d="M5.8933 10.4174C5.94045 8.80748 6.31762 7.71838 7.16625 6.62928C8.01489 5.49283 9.47643 4.7352 11.2208 4.7352C12.9653 4.7352 14.1439 5.30343 14.8983 6.15576C15.8412 7.19751 16.3598 8.61807 16.4069 10.4174H5.8933ZM11.3151 0C7.96774 0 5.37469 1.23115 3.53598 3.07788C1.17866 5.49283 0 8.94953 0 12.8797C0 16.81 1.3201 20.314 3.77171 22.6816C5.70471 24.5283 8.10918 25.6648 11.4566 25.6648C14.5682 25.6648 17.5856 24.6704 19.6601 22.2554C20.603 21.119 21.5931 19.1776 21.7345 17.757H16.0769C15.8412 18.6567 15.4169 19.3196 14.8983 19.8405C14.0496 20.6928 13.0124 21.0243 11.3623 21.0243C9.71216 21.0243 8.58064 20.314 7.77915 19.5564C6.60049 18.4199 5.94045 16.6206 5.98759 14.7738H22.2531C22.2531 14.253 22.3002 13.1165 22.3002 13.1165C22.3945 10.086 21.9702 7.29221 20.1787 4.59314C18.1985 1.46791 14.8983 0 11.3151 0Z" fill="var(--fill-0, #3DAE2B)"/>
</svg>
