<svg preserveAspectRatio="none" width="100%" height="100%" overflow="visible" style="display: block;" viewBox="0 0 12 13" fill="none" xmlns="http://www.w3.org/2000/svg">
<path id="Vector" d="M7.47256 3.32727C7.09624 2.89091 6.45113 2.56364 5.64474 2.56364C4.83835 2.56364 4.19323 2.94545 3.81692 3.32727C3.11804 4.09091 2.95677 5.29091 2.95677 6.43636C2.95677 7.58182 3.11804 8.72727 3.81692 9.54545C4.19323 9.98182 4.83835 10.3091 5.64474 10.3091C6.45113 10.3091 7.09624 9.98182 7.47256 9.54545C8.17143 8.78182 8.33271 7.63636 8.33271 6.43636C8.33271 5.23636 8.17143 4.09091 7.47256 3.32727ZM9.89173 10.9636C9.03158 12 7.47256 12.8727 5.64474 12.8727C3.81692 12.8727 2.25789 12 1.39774 10.9636C0.483834 9.81818 0 8.50909 0 6.43636C0 4.36364 0.483834 3.05455 1.39774 1.90909C2.25789 0.872727 3.81692 0 5.64474 0C7.47256 0 9.03158 0.872727 9.89173 1.90909C10.8056 3.05455 11.2895 4.36364 11.2895 6.43636C11.2895 8.45455 10.8056 9.76364 9.89173 10.9636Z" fill="var(--fill-0, #1F3045)"/>
</svg>
