<svg preserveAspectRatio="none" width="100%" height="100%" overflow="visible" style="display: block;" viewBox="0 0 12 18" fill="none" xmlns="http://www.w3.org/2000/svg">
<path id="Vector" d="M5.48346 14.5636C4.03196 14.5636 2.95677 13.6909 2.84925 12.1091V9.6H4.40827H5.21466C6.71992 9.6 8.06391 10.3636 8.06391 12.1091C8.06391 13.6364 6.93496 14.5636 5.48346 14.5636ZM5.48346 2.61818C6.77368 2.61818 7.68759 3.6 7.68759 4.8C7.68759 6.32727 6.77368 7.03636 5.1609 7.03636H4.46203H2.79549V2.67273L5.48346 2.61818ZM8.38647 8.23636C9.83797 7.69091 10.7519 6.16364 10.7519 4.69091C10.7519 1.85455 8.49399 0 5.53722 0H0V12.1091C0.0537594 15.1636 2.47293 17.1818 5.48346 17.1818C8.54774 17.1818 11.0207 15.4364 11.0207 12.1636C11.0207 10.4182 10.053 8.72727 8.38647 8.23636Z" fill="var(--fill-0, #1F3045)"/>
</svg>
