<svg preserveAspectRatio="none" width="100%" height="100%" overflow="visible" style="display: block;" viewBox="0 0 9 10" fill="none" xmlns="http://www.w3.org/2000/svg">
<path id="Vector" d="M5.43458 2.16364C5.1609 1.85454 4.69173 1.66136 4.10526 1.66136C3.4797 1.66136 2.93233 1.93182 2.61955 2.31818C2.30677 2.70455 2.18947 3.09091 2.15038 3.67045H5.94286C5.94286 3.01364 5.74737 2.51136 5.43458 2.16364ZM8.05413 5.17727H2.18947C2.15037 5.83409 2.42406 6.49091 2.81504 6.87727C3.12782 7.14773 3.55789 7.41818 4.10526 7.41818C4.73083 7.41818 5.0827 7.30227 5.39548 6.99318C5.59097 6.8 5.74737 6.56818 5.82556 6.25909H7.85864C7.81954 6.76136 7.46767 7.45682 7.11579 7.88182C6.37293 8.77045 5.27819 9.11818 4.14436 9.11818C2.93233 9.11818 2.07218 8.69318 1.36842 8.03636C0.469173 7.18636 0 5.98864 0 4.55909C0 3.16818 0.430074 1.93182 1.25113 1.08182C1.91579 0.425 2.85413 0 4.06616 0C5.35639 0 6.56842 0.502272 7.27218 1.62273C7.89774 2.58864 8.05413 3.55455 8.01504 4.63636C8.09323 4.59773 8.05413 5.02273 8.05413 5.17727Z" fill="var(--fill-0, #3DAE2B)"/>
</svg>
