<svg preserveAspectRatio="none" width="100%" height="100%" overflow="visible" style="display: block;" viewBox="0 0 3 3" fill="none" xmlns="http://www.w3.org/2000/svg">
<path id="Vector" d="M1.32932 0.811364C1.29022 0.772727 1.21203 0.772727 1.13383 0.772727H1.05564V1.15909H1.21203C1.29023 1.15909 1.36842 1.15909 1.40752 1.12046C1.44662 1.08182 1.48571 1.04318 1.48571 0.965909C1.48571 0.888636 1.40751 0.811364 1.32932 0.811364ZM0.664666 1.89318V0.54091C0.742861 0.54091 0.860154 0.54091 1.05564 0.54091C1.21203 0.54091 1.32932 0.54091 1.32932 0.54091C1.44661 0.54091 1.52481 0.579546 1.60301 0.618182C1.7203 0.695455 1.7985 0.811364 1.7985 0.927273C1.7985 1.04318 1.75939 1.12045 1.7203 1.15909C1.6421 1.19773 1.5639 1.23636 1.48571 1.23636C1.5639 1.23636 1.6421 1.275 1.6812 1.31364C1.75939 1.39091 1.7985 1.46818 1.7985 1.62273V1.73864V1.77727V1.81591V1.85455H1.44662C1.44662 1.81591 1.44662 1.73864 1.40752 1.66136C1.40752 1.58409 1.40752 1.50682 1.36842 1.50682C1.36842 1.46818 1.32933 1.42955 1.25113 1.39091C1.21203 1.39091 1.17293 1.35227 1.13383 1.35227H1.05564H0.977442V1.81591H0.664666V1.89318ZM0.508265 0.502273C0.312777 0.695455 0.195488 0.927273 0.195488 1.19773C0.195488 1.46818 0.312777 1.73864 0.508265 1.93182C0.703754 2.125 0.938347 2.24091 1.21203 2.24091C1.48571 2.24091 1.7203 2.125 1.91578 1.93182C2.11127 1.73864 2.22857 1.50682 2.22857 1.19773C2.22857 0.927273 2.11127 0.695455 1.91578 0.502273C1.7203 0.309091 1.48571 0.193182 1.21203 0.193182C0.938347 0.193182 0.703754 0.309091 0.508265 0.502273ZM2.07217 2.08636C1.83759 2.31818 1.52481 2.43409 1.21203 2.43409C0.860152 2.43409 0.586463 2.31818 0.351877 2.08636C0.117291 1.85455 0 1.54545 0 1.23636C0 0.888637 0.117293 0.579546 0.390977 0.347728C0.625563 0.11591 0.899252 0 1.25113 0C1.60301 0 1.87669 0.11591 2.11127 0.347728C2.34586 0.579546 2.46315 0.888636 2.46315 1.19773C2.46315 1.54545 2.34586 1.85455 2.07217 2.08636Z" fill="var(--fill-0, #3DAE2B)"/>
</svg>
