<svg preserveAspectRatio="none" width="100%" height="100%" overflow="visible" style="display: block;" viewBox="0 0 17 13" fill="none" xmlns="http://www.w3.org/2000/svg">
<path id="Vector" d="M12.2933 10.2934C11.1537 11.162 9.76607 11.6433 8.33333 11.6667C3.66667 11.6667 1 6.33335 1 6.33335C1.82926 4.78795 2.97942 3.43776 4.37333 2.37335M6.93333 1.16002C7.39222 1.0526 7.86204 0.998909 8.33333 1.00002C13 1.00002 15.6667 6.33335 15.6667 6.33335C15.262 7.09042 14.7794 7.80317 14.2267 8.46002M9.74667 7.74668C9.56357 7.94318 9.34277 8.10079 9.09744 8.2101C8.8521 8.31941 8.58727 8.37819 8.31873 8.38293C8.05019 8.38767 7.78344 8.33827 7.53441 8.23768C7.28537 8.13709 7.05915 7.98737 6.86923 7.79745C6.67931 7.60754 6.5296 7.38131 6.42901 7.13228C6.32842 6.88324 6.27902 6.6165 6.28376 6.34796C6.28849 6.07942 6.34727 5.81458 6.45658 5.56925C6.5659 5.32392 6.7235 5.10312 6.92 4.92002" stroke="var(--stroke-0, #1F3045)" stroke-width="1.33213" stroke-linecap="round" stroke-linejoin="round"/>
</svg>
