<svg preserveAspectRatio="none" width="100%" height="100%" overflow="visible" style="display: block;" viewBox="0 0 4 4" fill="none" xmlns="http://www.w3.org/2000/svg">
<path id="Vector" d="M1.82782 1.14545C1.77406 1.09091 1.66654 1.09091 1.55902 1.09091H1.45151V1.63636H1.66654C1.77406 1.63636 1.88158 1.63636 1.93534 1.58182C1.9891 1.52727 2.04285 1.47273 2.04285 1.36364C2.04285 1.25455 1.93533 1.14545 1.82782 1.14545ZM0.913916 2.67273V0.763637C1.02144 0.763637 1.18271 0.763637 1.45151 0.763637C1.66655 0.763637 1.82782 0.763637 1.82782 0.763637C1.98909 0.763637 2.09662 0.818182 2.20414 0.872727C2.36542 0.981818 2.47294 1.14546 2.47294 1.30909C2.47294 1.47273 2.41917 1.58182 2.36541 1.63636C2.25789 1.69091 2.15037 1.74545 2.04285 1.74545C2.15037 1.74545 2.25789 1.8 2.31165 1.85455C2.41917 1.96364 2.47294 2.07273 2.47294 2.29091V2.45455V2.50909V2.56364V2.61818H1.9891C1.9891 2.56364 1.9891 2.45455 1.93534 2.34545C1.93534 2.23636 1.93534 2.12727 1.88158 2.12727C1.88158 2.07273 1.82783 2.01818 1.72031 1.96364C1.66655 1.96364 1.61278 1.90909 1.55902 1.90909H1.45151H1.34398V2.56364H0.913916V2.67273ZM0.698866 0.709091C0.430069 0.981819 0.268797 1.30909 0.268797 1.69091C0.268797 2.07273 0.430069 2.45455 0.698866 2.72727C0.967663 3 1.29023 3.16364 1.66654 3.16364C2.04286 3.16364 2.36541 3 2.63421 2.72727C2.903 2.45455 3.06429 2.12727 3.06429 1.69091C3.06429 1.30909 2.903 0.981819 2.63421 0.709091C2.36541 0.436364 2.04286 0.272727 1.66654 0.272727C1.29023 0.272727 0.967663 0.436364 0.698866 0.709091ZM2.84924 2.94546C2.52669 3.27273 2.09662 3.43636 1.66654 3.43636C1.18271 3.43636 0.806388 3.27273 0.483831 2.94546C0.161275 2.61818 0 2.18182 0 1.74545C0 1.25455 0.161278 0.818183 0.537594 0.49091C0.86015 0.163637 1.23647 0 1.72031 0C2.20414 0 2.58045 0.163637 2.903 0.49091C3.22556 0.818183 3.38684 1.25455 3.38684 1.69091C3.38684 2.18182 3.22556 2.61818 2.84924 2.94546Z" fill="var(--fill-0, #3DAE2B)"/>
</svg>
