<svg preserveAspectRatio="none" width="100%" height="100%" overflow="visible" style="display: block;" viewBox="0 0 18 13" fill="none" xmlns="http://www.w3.org/2000/svg">
<path id="Vector" d="M14.3538 12.5455V4.90909C14.3538 3.38182 13.9774 2.50909 12.4722 2.50909C10.8056 2.50909 10.1068 4.25454 10.1068 5.83636V12.5455H7.20376V4.90909C7.20376 3.38182 6.82744 2.50909 5.32218 2.50909C3.65564 2.50909 2.90301 4.25454 2.90301 5.83636V12.5455H0V0.272727H2.41917L2.63421 1.90909C3.27932 0.763636 4.46203 0 6.07481 0C7.79511 0 8.92406 0.763636 9.51541 2.01818C10.2143 0.763636 11.5583 0 13.1711 0C15.7515 0 17.0955 1.74545 17.0955 4.30909V12.6L14.3538 12.5455Z" fill="var(--fill-0, #1F3045)"/>
</svg>
